<svg width="32" height="32" viewBox="0 0 32 32" fill="none" xmlns="http://www.w3.org/2000/svg">
<path fill-rule="evenodd" clip-rule="evenodd" d="M27.4875 20.9742L25.2035 26.2247C24.4387 27.9827 23.0069 29.365 21.223 30.0673C19.4391 30.7697 17.4493 30.7346 15.6912 29.9699L6.11942 25.8061C4.99066 25.3144 4.00618 24.5425 3.25932 23.5637C3.06282 23.3062 2.89474 23.0083 2.75052 22.6869C1.86804 21.7999 1.93579 19.2188 1.98241 17.4426C1.99166 17.0902 2.00008 16.7695 2.00008 16.5C2.00008 14.567 3.56708 13 5.50008 13C6.08938 13 6.64467 13.1456 7.13191 13.4029L8.20706 10.9313C9.49308 7.48534 10.665 6 12.5001 6C13.7531 6 14.8523 6.65842 15.4706 7.64815C16.043 7.24005 16.7435 7 17.5001 7C19.379 7 20.9121 8.4805 20.9964 10.3386C21.452 10.1215 21.9618 10 22.5001 10C24.4331 10 26.0001 11.567 26.0001 13.5C26.0001 13.6802 25.9865 13.8571 25.9602 14.03C27.6758 14.2553 29.0001 15.723 29.0001 17.5C28.8169 17.9273 28.6477 18.3322 28.4882 18.7139C28.12 19.5951 27.8036 20.3522 27.4875 20.9742ZM20.9954 14.9173C20.7712 14.6251 20.0385 13.8711 18.1651 13.0562C15.6764 11.9736 12.6547 11.9403 10.4019 17.1191C8.14898 22.2981 10.7362 24.3413 13.1994 25.4128C15.2388 26.2999 16.8616 25.9514 16.8616 25.9514C16.9251 25.945 16.9621 25.8749 16.9766 25.8416L19.4926 20.0578C19.5351 19.96 19.4918 19.8465 19.3957 19.8047L15.6676 18.1829C15.6213 18.1628 15.5689 18.1623 15.5217 18.1813C15.4746 18.2004 15.4366 18.2375 15.4161 18.2845L14.6094 20.139C14.5668 20.2368 14.6103 20.3504 14.7064 20.3922L16.1608 21.0249L15.1586 23.329C15.1586 23.329 14.7827 23.3002 13.8798 22.9075C12.8147 22.4441 11.4989 21.4008 12.947 18.0718C14.3954 14.7422 16.1355 14.9782 17.5901 15.611C18.7226 16.1036 19.196 16.5265 19.4965 16.7949C19.5301 16.8249 19.5615 16.853 19.5915 16.879C19.6852 16.96 19.8334 16.8938 19.876 16.7959L20.9674 15.325C20.9784 15.1977 20.9888 15.062 20.9954 14.9173Z" fill="#BDCCE2"/>
</svg>
