<svg width="32" height="32" viewBox="0 0 32 32" fill="none" xmlns="http://www.w3.org/2000/svg">
<path fill-rule="evenodd" clip-rule="evenodd" d="M30.1353 9.45055C29.6079 9.22112 29.0109 9.2106 28.4758 9.42131C27.9406 9.63201 27.511 10.0467 27.2816 10.5741L24.6864 16.5399L23.3607 15.9632L27.1093 7.34592C27.3387 6.8185 27.3492 6.22155 27.1385 5.68639C26.9278 5.15122 26.5132 4.72168 25.9857 4.49225C25.4583 4.26282 24.8614 4.25231 24.3262 4.46301C23.7911 4.67372 23.3615 5.08839 23.1321 5.6158L19.9649 12.8966C19.6002 12.6837 19.173 12.4629 18.6737 12.2405L22.383 3.71336C22.6125 3.18595 22.623 2.589 22.4123 2.05383C22.2016 1.51867 21.7869 1.08912 21.2595 0.859693C20.7321 0.630266 20.1351 0.619749 19.6 0.830455C19.0648 1.04116 18.6353 1.45583 18.4058 1.98324L14.1581 11.748C14.0667 11.7759 13.9751 11.8067 13.8834 11.8405L12.7548 11.3496L15.9267 4.05801C16.1561 3.5306 16.1666 2.93365 15.9559 2.39849C15.7452 1.86332 15.3306 1.43378 14.8031 1.20435C14.2757 0.974922 13.6788 0.964404 13.1436 1.17511C12.6084 1.38582 12.1789 1.80049 11.9495 2.3279L5.7153 16.6591L4.8483 10.6062C4.7663 10.0353 4.46089 9.52036 3.99923 9.17465C3.53757 8.82895 2.95749 8.6808 2.3866 8.76279C1.81572 8.84478 1.30078 9.1502 0.955076 9.61186C0.609373 10.0735 0.461222 10.6536 0.543214 11.2245L1.8518 20.2128C2.02796 21.4313 2.51244 22.5847 3.25929 23.5635C4.00615 24.5423 4.99063 25.3141 6.11939 25.8058L15.6912 29.9696C17.4493 30.7344 19.4391 30.7694 21.223 30.0671C23.0069 29.3647 24.4387 27.9825 25.2034 26.2245L31.2588 12.3042C31.4883 11.7768 31.4988 11.1798 31.2881 10.6447C31.0774 10.1095 30.6627 9.67997 30.1353 9.45055ZM19.3956 19.8044L15.6675 18.1827C15.6213 18.1626 15.5688 18.162 15.5217 18.1811C15.4745 18.2001 15.4366 18.2372 15.4161 18.2843L14.6094 20.1387C14.5668 20.2366 14.6102 20.3502 14.7064 20.392L16.1608 21.0247L15.1585 23.3287C15.1585 23.3287 14.7827 23.3 13.8798 22.9072C12.8146 22.4438 11.4989 21.4005 12.947 18.0716C14.3954 14.7419 16.1355 14.9779 17.5901 15.6107C18.7226 16.1034 19.196 16.5262 19.4965 16.7946C19.5301 16.8246 19.5615 16.8527 19.5914 16.8788C19.6852 16.9598 19.8333 16.8936 19.8759 16.7956L21.0712 15.1847C21.0912 15.1389 21.0999 15.0771 21.0649 15.0173C20.9689 14.8546 20.3256 13.9958 18.1651 13.0559C15.6764 11.9733 12.6547 11.94 10.4019 17.1188C8.14895 22.2978 10.7362 24.341 13.1994 25.4125C15.2387 26.2997 16.8616 25.9512 16.8616 25.9512C16.9251 25.9448 16.9621 25.8747 16.9766 25.8414L19.4926 20.0576C19.5351 19.9598 19.4917 19.8462 19.3956 19.8044Z" fill="#BDCCE2"/>
</svg>
