<svg width="128" height="128" viewBox="0 0 128 128" fill="none" xmlns="http://www.w3.org/2000/svg">
<path d="M34.3327 93.4677L37.0633 86.2754L43.0706 84.694L37.0633 78.858L34.3327 69.7319L31.6022 76.9241L25.5949 78.5055L31.6022 84.3415L34.3327 93.4677Z" fill="#DCDCDC"/>
<path d="M47.4395 86.2411L49.4928 80.8563L53.9928 79.6608L49.4928 75.2784L47.4395 68.4393L45.3861 73.8241L40.8861 75.0195L45.3861 79.402L47.4395 86.2411Z" fill="#DCDCDC"/>
<path fill-rule="evenodd" clip-rule="evenodd" d="M68.3291 8.28228C65.2065 7.16567 61.7935 7.16567 58.6709 8.28228L15.5392 23.684C9.81836 25.7279 6 31.1455 6 37.2324V91.7676C6 97.8545 9.81836 103.268 15.5392 105.312L58.6709 120.72C61.793 121.843 65.207 121.843 68.3291 120.72L111.454 105.312C116.979 103.268 121 97.8545 121 91.7676V37.2324C121 31.1455 116.979 25.7279 111.454 23.684L68.3291 8.28228ZM24.4943 35.75L63.5 21.8197L102.515 35.75L63.5 49.6758L24.4943 35.75ZM106.625 91.7676L70.6875 104.615V62.3887L106.625 49.541V91.7676ZM56.1773 68.5665L51.8084 58.1185L60.5462 61.2127V102.75C60.5462 106.014 58.5802 107.988 56.1773 107.137L21.226 94.7603C18.8231 93.9094 16.8571 90.5429 16.8571 87.2792L16.879 51.6833C16.879 48.4196 18.8231 46.4378 21.226 47.2887L23.4105 48.0623L27.7794 58.5103L34.3327 60.831L29.9638 50.3829L34.3327 51.93L38.7016 62.3781L45.255 64.6987L40.8861 54.2507L45.255 55.7978L49.6239 66.2458L56.1773 68.5665Z" fill="#DCDCDC"/>
</svg>
